PathFileType	4	(X/Y/Z)	E:\3-PhD\Data\MocapData\ElaboratedData\015\pre\dynamicElaborations\Run_baselineA1\Run_baselineA1.trc
DataRate	CameraRate	NumFrames	NumMarkers	Units	OrigDataRate	OrigDataStartFrame	OrigNumFrames
200	200	5	61	mm	200	8.550000e+02	99
Frame#	Time	FHD			LBHD			RBHD			C7			T10			CLAV			LSHO			LUUPA			LMUPA			LDUPA			LLEP			LMEP			LRAD			LUL			LRFIN			RSHO			RUPA1			RMUPA			RDUPA			RLEP			RMEP			RRAD			RUL			RUFIN			LASI			RASI			USACR			LSACR			RSACR			LTHI1			LTHI2			LTHI3			LTHI4			LLFC			LMFC			LTIB1			LTIB2			LTIB3			LTIB4			LLMAL			LMMAL			LHEE			LMT1			LMT5			LMT2			RTHI			RTHI2			RTHI3			RTHI4			RLFC			RMFC			RTIB1			RTIB2			RTIB3			RTIB4			RLMAL			RMMAL			RHEE			RMT1			RMT2			RMT5		
		X1	Y1	Z1	X2	Y2	Z2	X3	Y3	Z3	X4	Y4	Z4	X5	Y5	Z5	X6	Y6	Z6	X7	Y7	Z7	X8	Y8	Z8	X9	Y9	Z9	X10	Y10	Z10	X11	Y11	Z11	X12	Y12	Z12	X13	Y13	Z13	X14	Y14	Z14	X15	Y15	Z15	X16	Y16	Z16	X17	Y17	Z17	X18	Y18	Z18	X19	Y19	Z19	X20	Y20	Z20	X21	Y21	Z21	X22	Y22	Z22	X23	Y23	Z23	X24	Y24	Z24	X25	Y25	Z25	X26	Y26	Z26	X27	Y27	Z27	X28	Y28	Z28	X29	Y29	Z29	X30	Y30	Z30	X31	Y31	Z31	X32	Y32	Z32	X33	Y33	Z33	X34	Y34	Z34	X35	Y35	Z35	X36	Y36	Z36	X37	Y37	Z37	X38	Y38	Z38	X39	Y39	Z39	X40	Y40	Z40	X41	Y41	Z41	X42	Y42	Z42	X43	Y43	Z43	X44	Y44	Z44	X45	Y45	Z45	X46	Y46	Z46	X47	Y47	Z47	X48	Y48	Z48	X49	Y49	Z49	X50	Y50	Z50	X51	Y51	Z51	X52	Y52	Z52	X53	Y53	Z53	X54	Y54	Z54	X55	Y55	Z55	X56	Y56	Z56	X57	Y57	Z57	X58	Y58	Z58	X59	Y59	Z59	X60	Y60	Z60	X61	Y61	Z61	
892	4.455000	-2853.382919	1436.585134	253.666493	-2990.038408	1483.220997	235.765799	-3007.358799	1482.946142	362.797659	-3132.420718	1397.867556	287.891400	-3316.411510	1111.544999	281.344028	-3033.044073	1259.205140	284.723804	-3047.803977	1362.977222	111.172586	-3060.145344	1185.196682	28.791308	-3036.961005	1148.588962	51.984952	-3061.884808	1122.152611	3.710250	-3086.126167	1041.375746	-15.070257	-3135.888073	1022.082886	72.472272	-2890.590554	996.475298	149.226913	-2918.590621	1059.330527	178.117276	-2838.491208	1072.742668	211.812143	-3079.796294	1347.168680	472.778466	-3220.579042	1297.068945	577.843244	-3220.277061	1251.178223	594.581114	-3273.913199	1270.450774	616.394770	-3349.481267	1200.448368	659.582584	-3394.201138	1198.894381	587.276848	-3233.088442	973.770073	584.917625	-3278.954147	938.160711	633.540342	-3179.769352	914.518085	608.602029	-3258.541250	912.942265	128.668574	-3220.061175	902.103122	379.411952	-3380.098560	1016.907974	290.742681	-3399.482337	988.248124	266.626017	-3391.509049	990.222521	322.283458	-3396.439417	633.742566	82.038969	-3368.335218	555.084093	74.574542	-3321.515560	552.523508	66.324870	-3389.382977	503.419301	98.507994	-3401.298048	410.331673	110.791808	-3367.109916	405.679915	235.570148	-3448.325077	254.809770	160.769487	-3529.930301	258.499121	127.293327	-3498.905404	231.998502	141.508809	-3547.800165	174.504084	183.972173	-3680.233752	127.807604	182.355589	-3654.487647	137.968750	267.300644	-3763.161608	105.842203	243.174316	-3558.154903	56.672420	238.744367	-3609.093133	29.685338	143.009791	-3563.701717	52.648148	190.787080	-3178.996982	786.958777	458.086341	-3116.720997	779.181482	438.521430	-3104.049494	800.176315	413.885484	-3075.860488	704.051729	438.244348	-3011.703581	552.653130	387.490955	-3013.323976	558.245502	257.525626	-3148.301939	413.467060	347.173497	-3239.884140	434.186552	406.546912	-3223.767495	396.716971	383.411361	-3266.724506	368.492454	354.900710	-3343.888395	375.493224	394.962239	-3345.829236	379.836195	310.325166	-3446.729596	405.299186	360.827477	-3303.448845	238.308775	319.937327	-3299.861256	240.982375	362.455320	-3340.381487	250.489991	421.866003	
893	4.460000	-2827.687096	1438.565463	255.924954	-2964.386999	1485.384449	238.518827	-2981.186571	1485.139082	365.582434	-3106.626946	1399.505245	289.353519	-3288.503151	1111.815337	278.543211	-3006.296904	1261.682169	287.948412	-3019.032180	1366.218672	114.933519	-3027.554906	1189.663709	30.911908	-3003.990402	1153.224958	53.914771	-3027.843923	1126.892669	5.123888	-3050.851610	1045.841844	-14.898897	-3101.196421	1025.444677	72.355311	-2856.373732	1007.270890	152.647837	-2886.497314	1069.657882	180.530951	-2807.096367	1085.800525	214.634776	-3054.893208	1350.699002	474.363159	-3195.796345	1305.063786	578.971544	-3196.453238	1259.452767	596.545290	-3249.606645	1280.105988	617.899724	-3326.908867	1212.503537	661.678182	-3371.417070	1211.231271	589.127439	-3214.116174	982.594959	589.977634	-3261.295712	948.018368	637.925082	-3162.255493	922.163456	613.783934	-3227.625483	911.867206	128.403724	-3192.072622	905.684348	379.723109	-3351.752762	1017.095486	287.703682	-3370.679105	988.144754	263.571860	-3363.590413	990.691391	319.356382	-3375.733905	635.334919	82.548948	-3351.718743	555.371031	76.527888	-3305.168705	550.488385	68.484193	-3375.823551	505.237412	100.543843	-3392.600420	412.643110	112.675525	-3360.362201	405.962758	237.932917	-3442.520373	257.565514	160.262066	-3524.231382	263.324900	127.120144	-3493.695016	236.222337	140.967977	-3543.075227	178.402946	182.457718	-3675.906908	132.883482	179.937113	-3649.991284	142.457588	265.123185	-3758.937234	114.398224	240.275809	-3557.939600	55.881631	238.556677	-3608.841598	29.432571	142.841517	-3563.255603	52.053755	190.682940	-3150.307582	794.891156	456.751553	-3088.030379	789.667336	436.786576	-3076.208222	811.471118	412.369444	-3044.185622	715.939139	436.400916	-2973.322116	565.775848	385.883638	-2976.162094	572.523611	256.898624	-3100.516302	416.715749	346.340317	-3192.806381	430.526972	406.843163	-3174.241740	394.285705	383.053378	-3215.301362	363.514167	354.998875	-3293.353714	365.174990	395.812243	-3295.685876	369.194836	311.177149	-3398.474531	386.737724	361.939128	-3241.953556	231.884093	321.544561	-3238.746778	234.931452	363.939445	-3279.867211	241.190270	423.512619	
894	4.465000	-2801.843164	1440.630313	258.331148	-2938.549386	1487.727000	241.378027	-2954.864699	1487.493314	368.459315	-3080.672236	1401.395872	290.875079	-3260.368509	1112.308251	275.652644	-2979.472099	1264.417668	291.183960	-2990.366309	1369.598424	118.712952	-2995.335491	1194.395413	33.039314	-2971.516879	1158.036036	55.844707	-2994.304324	1131.947879	6.512017	-3016.352102	1050.759493	-15.017997	-3067.381665	1029.255196	71.829617	-2823.267827	1017.827491	155.639753	-2855.333288	1079.745013	182.587755	-2776.694340	1098.383870	217.058064	-3029.787292	1354.317750	475.946640	-3170.555046	1312.685327	580.158619	-3172.169470	1267.311879	598.327875	-3224.782482	1289.220097	619.371607	-3303.736141	1223.943121	663.440722	-3348.026443	1223.200373	590.734309	-3194.608962	990.955241	594.402679	-3242.961164	957.358445	641.725322	-3144.070889	929.428273	618.399895	-3196.227966	911.275158	128.364959	-3163.830906	909.698051	379.906153	-3323.184344	1017.423163	284.522139	-3341.659623	988.195638	260.369913	-3335.449087	991.267588	316.251683	-3354.102930	637.745169	83.129655	-3334.209500	556.637367	78.692749	-3287.983251	549.529602	71.069651	-3361.387798	508.209641	102.766979	-3382.960057	416.538461	114.818765	-3352.936409	408.344591	240.777334	-3435.735286	261.656002	159.849365	-3517.442657	269.362528	126.826878	-3487.401560	241.714707	140.356856	-3537.188101	183.383822	180.608655	-3670.315421	138.523939	177.011792	-3644.448401	147.363533	262.484653	-3753.360559	123.957935	236.634775	-3557.544334	55.103556	238.333943	-3608.175407	29.415443	142.511468	-3562.527703	51.477932	190.552243	-3121.747846	802.679526	455.349991	-3059.604407	799.593596	435.103897	-3048.529241	822.083346	410.905172	-3013.200343	727.177497	434.758119	-2936.123313	578.099320	384.529671	-2940.059591	585.778562	256.538384	-3053.269931	419.582938	345.637705	-3145.967741	426.502416	406.931372	-3124.968008	391.601034	382.625496	-3163.906205	358.324298	354.929342	-3242.626555	354.640900	396.267143	-3245.060162	358.289400	311.721826	-3349.226953	367.707472	362.273794	-3180.424953	225.924123	323.278275	-3177.749513	229.440420	365.564848	-3219.406772	232.620823	425.172973	
895	4.470000	-2775.849399	1442.764613	260.865412	-2912.526630	1490.227481	244.318346	-2928.405132	1489.972776	371.403520	-3054.525840	1403.517860	292.434166	-3232.030779	1113.009909	272.725184	-2952.580144	1267.377575	294.384585	-2961.825979	1373.086358	122.458061	-2963.520158	1199.327621	35.149524	-2939.562900	1162.959828	57.736157	-2961.311571	1137.250338	7.843435	-2982.658998	1056.052346	-15.423050	-3034.485448	1033.426692	70.880080	-2791.235115	1027.978136	158.197918	-2825.070158	1089.422562	184.318971	-2747.242657	1110.310258	219.141316	-3004.456943	1357.974321	477.530054	-3144.887310	1319.856371	581.414534	-3147.452336	1274.668163	599.947829	-3199.495997	1297.706311	620.801724	-3279.986000	1234.648173	664.872314	-3324.014618	1234.664375	592.085494	-3174.530387	998.726327	598.202909	-3223.899263	966.053606	644.974239	-3125.154971	936.206943	622.485814	-3164.472340	911.182402	128.512612	-3135.403900	913.954780	379.883279	-3294.422970	1017.903981	281.242450	-3312.463159	988.419952	257.067002	-3307.114766	991.962568	313.017134	-3331.481800	640.956893	83.781171	-3315.623459	558.891885	81.023065	-3269.766031	549.728598	74.058616	-3345.818333	512.293869	105.095662	-3372.107977	421.913132	117.198290	-3344.508177	412.835651	244.009022	-3427.723376	266.998168	159.641563	-3509.287153	276.457936	126.468742	-3479.743580	248.330739	139.774769	-3529.907318	189.368799	178.565933	-3663.234368	144.741963	173.642918	-3637.681019	152.692374	259.439688	-3746.199465	134.531719	232.298196	-3556.831904	54.455776	238.094634	-3606.945613	29.843579	142.027836	-3561.392376	51.014412	190.400795	-3093.264137	810.170217	453.926592	-3031.346695	808.789541	433.510199	-3020.903810	831.830861	409.510937	-2982.809052	737.562736	433.356539	-2900.056438	589.366647	383.481329	-2904.959372	597.682079	256.474578	-3006.646837	421.947564	345.122957	-3099.465468	422.066211	406.843346	-3076.068317	388.620749	382.194325	-3112.662931	352.931786	354.760449	-3191.787937	343.930254	396.372353	-3194.011998	347.164022	311.957700	-3299.047809	348.372772	361.876960	-3119.045537	220.456553	325.113642	-3117.058411	224.510400	367.318234	-3159.199627	224.778834	426.841560	
896	4.475000	-2749.701105	1444.956428	263.501305	-2886.317375	1492.865675	247.310806	-2901.815791	1492.545302	374.386377	-3028.171504	1405.840330	294.012659	-3203.518464	1113.905466	269.818981	-2925.625495	1270.521356	297.507016	-2933.425216	1376.660062	126.117578	-2932.147868	1204.400693	37.204793	-2908.154070	1167.940608	59.530895	-2928.918206	1142.738219	9.068889	-2949.809271	1061.649418	-16.104617	-3002.530139	1037.877771	69.519095	-2760.233290	1037.564218	160.319778	-2795.665834	1098.534451	185.750703	-2718.683550	1121.403740	220.939265	-2978.884648	1361.608834	479.120178	-3118.833931	1326.497546	582.737447	-3122.331714	1281.440576	601.424748	-3173.804719	1305.490293	622.184160	-3255.689109	1244.507780	665.984967	-3299.373609	1245.471564	593.175998	-3153.831074	1005.797136	601.402281	-3204.055515	973.983844	647.704380	-3105.444888	942.405219	626.076547	-3132.488319	911.573953	128.791733	-3106.863034	918.280509	379.611494	-3265.498290	1018.553207	277.913481	-3283.126625	988.835918	253.713312	-3278.622871	992.794025	309.705917	-3307.848379	644.888362	84.505956	-3295.825906	562.064897	83.475328	-3250.375655	551.045692	77.420509	-3328.906330	517.363063	107.462413	-3359.830865	428.576743	119.777186	-3334.817516	419.319759	247.513265	-3418.257196	273.442946	159.731895	-3499.513542	284.414035	126.101436	-3470.471407	255.877950	139.312343	-3521.032263	196.241109	176.489251	-3654.470176	151.552907	169.935596	-3629.539814	158.468320	256.077757	-3737.261093	146.108638	227.359477	-3555.629890	54.107544	237.867298	-3604.978882	30.999619	141.425403	-3559.687542	50.800048	190.239146	-3064.807218	817.209562	452.515858	-3003.162720	817.103016	432.033937	-2993.226180	840.555249	408.197594	-2952.914282	746.915278	432.216601	-2865.084836	599.350446	382.789925	-2870.809587	607.967442	256.741792	-2960.742146	423.705943	344.858510	-3053.415667	417.170821	406.624146	-3027.678307	385.296395	381.828199	-3061.712403	347.332383	354.569212	-3140.928303	333.065466	396.184277	-3142.642617	335.848931	311.891633	-3248.040019	328.888090	360.840890	-3058.018286	215.481338	326.995975	-3056.870337	220.104017	369.151032	-3099.435076	217.605187	428.482635	
